<svg xmlns="http://www.w3.org/2000/svg" viewBox="0 0 340.55 340.55">
  <circle
    cx="170.275"
    cy="170.275"
    r="166.775"
    fill="#043619"
    transform="rotate(-45 170.275 170.275)"
  />
  <path
    fill="#1e4f32"
    d="M170.275 7a163.275 163.275 0 01115.453 278.728A163.275 163.275 0 0154.822 54.822 162.21 162.21 0 01170.275 7m0-7A170.275 170.275 0 10340.55 170.275 170.275 170.275 0 00170.275 0z"
  />
  <path
    fill="#318253"
    d="M308.017 187.951a7.61 7.61 0 000-7.117c-2.04-3.548-7.882.254-10.686 3.314l-2.8-1.275s6.352-8.158 2.039-12.6c-4.334-4.44-14.51 1.147-17.8 8.009 0 0-8.413-3.038-9.687-2.783 0 0 24.686-19.354 27.745-22.647 3.059-3.314 7.627-8.136 5.588-13.745-2.04-5.587-15-8.137-22.9-6.862-4.568.744-8.01.871-18.632 8.434-5.948 4.228-14.128 10.792-26.046 21.1q-5.257 4.589-11.536 10.155H215.9s3.824-6.607-1.253-10.941c-5.1-4.334-14-1.02-22.392 11.451l-13.491.765s3.909-9.412-2.379-10.941c-6.267-1.53-14.4 3.824-17.973 11.96 0 0-40.96.255-47.333 2.805-6.352 2.528-7.882 4.822-7.882 9.156l92.861 7.627-4.568 4.584s-8.646-4.079-12.98-2.8.254 5.842.254 5.842-16.039-.255-18.057.255c-2.04.51-3.824 3.059-3.824 3.059s5.1 2.3 23.411 3.824c0 0 2.04 3.293 5.078 3.8 3.059.51 15.81 2.409 39.94-9.39a483.872 483.872 0 003.426-1.692 76.458 76.458 0 11-.2-62.552 3.178 3.178 0 005.183 1.02l.383-.468a36.076 36.076 0 00-4.271-48.013c-.488-.446-1-.892-1.487-1.317a2.105 2.105 0 00-.318-.255 106.2 106.2 0 1033.165 108.947c.836-.009 1.275-.023 1.275-.023l50.117.255a2.8 2.8 0 003.314-2.784c.255-3.314-5.078-7.902-7.882-8.157z"
  />
</svg>
