<svg xmlns="http://www.w3.org/2000/svg" viewBox="0 0 2025.5 746.16">
  <g style="opacity:.39">
    <polygon points="1211.298 746.16 515.328 746.16 672.258 474.33 745.618 347.28 863.308 143.42 920.468 242.42 1086.948 530.78 1144.118 629.79 1210.638 745.01 1211.298 746.16" fill="#922b24"/>
    <polygon points="829.208 746.16 0 746.16 414.588 28.04 471.758 127.05 829.208 746.16" fill="#91751c"/>
    <polygon points="1878.798 746.16 1397.748 746.16 1473.328 615.25 1546.678 488.21 1638.268 329.57 1695.428 428.58 1878.798 746.16" fill="#508e69"/>
    <polygon points="1548.908 746.16 962.608 746.16 969.258 734.64 1086.948 530.78 1160.308 403.72 1255.748 238.4 1312.908 337.41 1473.328 615.25 1530.488 714.26 1548.908 746.16" fill="#3e5e96"/>
  </g>
  <polygon points="1217.468 502.73 1076.929 746.16 975.908 746.16 802.768 446.27 993.818 115.37 1217.468 502.73" fill="#922b24"/>
  <polygon points="975.908 746.16 629.628 746.16 729.418 573.32 802.768 446.27 969.258 734.64 975.908 746.16" style="fill:#925020"/>
  <polygon points="802.768 446.27 975.908 746.16 629.628 746.16 114.318 746.16 471.758 127.05 545.108 0 745.618 347.28 802.768 446.27" fill="#91751c"/>
  <polygon points="1695.608 746.16 1603.838 587.22 1695.428 428.58 1768.788 301.52 2025.5 746.16 1695.608 746.16" fill="#508e69"/>
  <polygon points="1217.468 502.73 1358.008 746.16 1076.929 746.16 1217.468 502.73" style="fill:#913194"/>
  <polygon points="1695.608 746.16 1512.078 746.16 1530.488 714.26 1603.838 587.22 1695.608 746.16" style="fill:#489192"/>
  <polygon points="1603.838 587.22 1530.488 714.26 1512.078 746.16 1358.008 746.16 1217.468 502.73 1312.908 337.41 1386.258 210.36 1546.678 488.21 1603.838 587.22" fill="#3e5e96"/>
</svg>
